<?xml version='1.0' encoding='utf-8'?>
<svg xmlns="http://www.w3.org/2000/svg" width="400mm" height="400mm" version="1.1" viewBox="0 0 400 400"><g transform="translate(-724.37 -25.178)"><g transform="matrix(1.1062 0 0 1.1062 -21.066 17.102)" stroke-width=".90399"><rect x="673.87" y="7.3003" width="361.6" height="361.6" fill="#c83737" stroke-linecap="square" stroke-width="1.356" style="paint-order:stroke markers fill"/><ellipse cx="846.55" cy="335.74" rx="74.808" ry="21.773" fill="#a02c2c" stroke-linecap="square" stroke-width="1.356" style="paint-order:stroke markers fill"/><g transform="translate(977.16 45.105)"><path d="m-100.41 289.08c-2.6878-0.45069-5.1628-1.3216-5.7402-2.0198-0.24668-0.29835-0.52732-1.068-0.62364-1.7102-0.20119-1.3417 0.29045-9.3738 0.65063-10.63 0.13248-0.46194 0.17239-0.90838 0.0887-0.9921-0.0837-0.0837-1.4768-0.1522-3.0957-0.1522-2.7848 0-7.5126-0.47634-10.727-1.0807-5.2735-0.99167-13.83-3.1152-16.14-4.0053-2.6418-1.0183-16.735-8.1716-18.638-9.4603-2.9993-2.0307-7.6097-6.0958-12.583-11.094-3.8839-3.9039-4.9698-5.1772-6.737-7.8993l-2.1068-3.2452-0.65569 0.86393c-1.708 2.2504-7.2508 6.9668-9.5902 8.1602-1.3142 0.67047-3.6869 0.66731-5.172-7e-3 -3.0698-1.3937-5.9009-6.5682-5.9009-10.785 0-2.545 1.2327-5.4168 2.6962-6.2813 0.39596-0.2339 1.767-0.54263 3.0468-0.68607 3.2068-0.35942 7.0362-0.99512 8.9897-1.4924 1.3756-0.35011 1.6864-0.53859 1.954-1.1846 0.34914-0.84289 1.4257-1.8087 2.0162-1.8087 0.20642 0 1.1726-0.63726 2.1471-1.4161 1.9377-1.5487 4.4454-3.2581 8.1218-5.5364 1.3097-0.81162 3.0361-2.0553 3.8365-2.7637 0.80037-0.70844 2.7387-2.3369 4.3074-3.6187s3.5928-3.1767 4.4979-4.2107c0.90513-1.034 2.3903-2.6687 3.3004-3.6326 1.6112-1.7066 3.4153-4.3591 5.0853-7.4769 0.87548-1.6344 1.736-2.1939 4.4099-2.8672 1.1082-0.27905 1.1589-0.33351 1.043-1.1203-0.067-0.45486-0.329-2.1584-0.58224-3.7856-0.61436-3.9477-0.4285-4.5793 2.0404-6.9341 1.7318-1.6517 1.848-1.8372 2.0908-3.3365 0.1414-0.87313 0.68057-2.9809 1.1981-4.684s1.528-5.6917 2.2455-8.8636c0.71743-3.1719 1.3751-6.0113 1.4615-6.3098 0.15055-0.52027-0.0313-0.56199-4.3944-1.0084-5.62-0.57498-11.65-1.4563-18.347-2.6815-8.1336-1.488-8.7356-1.6772-17.209-5.4067-5.8997-2.5968-10.148-4.9431-13.505-7.4586-1.9688-1.4753-2.3033-2.2027-2.2737-4.9436 0.0302-2.7976 0.29118-4.3213 1.6173-9.4439 0.56506-2.1828 1.1598-4.9646 1.3217-6.1818s0.52334-2.9436 0.80329-3.8365c0.27994-0.89285 0.51053-1.7754 0.5124-1.9612 2e-3 -0.1858-0.9046-1.4288-2.0144-2.7622-1.8752-2.253-2.0949-2.431-3.1088-2.5178-1.5853-0.13582-3.5602-1.187-4.9576-2.6389-6.3034-6.5488-7.3211-7.7163-8.1189-9.3142-0.87893-1.7603-1.076-3.1285-0.52929-3.6751 0.47389-0.47389 1.0546-0.39015 2.4539 0.35391l1.2628 0.67141-0.97476-1.2667c-1.9392-2.52-2.7156-5.3787-1.7703-6.5177 0.45658-0.55015 1.5881-0.56361 2.3528-0.02799 0.58187 0.40756 0.58394 0.40389 0.42522-0.7541-0.19903-1.452 0.2106-2.3013 1.11-2.3013 1.1343 0 2.3181 0.66893 3.5616 2.0126l1.1981 1.2947-8e-3 -1.4364c-7e-3 -1.3453 0.0474-1.4687 0.8573-1.9454 0.78066-0.45954 0.92339-0.47068 1.467-0.1145 0.82672 0.54169 3.2755 4.2221 3.6575 5.497 0.17172 0.57314 0.38425 1.0421 0.4723 1.0421 0.0881 0 0.30244-0.59925 0.47642-1.3317 0.55697-2.3447 2.1655-4.0661 3.3682-3.6045 0.71148 0.27302 1.3975 2.1174 1.59 4.2748 0.10388 1.1642 0.37639 2.9501 0.60558 3.9688 0.26646 1.1843 0.42502 3.2394 0.43976 5.6998l0.0231 3.8477 1.041 1.1968c1.0057 1.1562 1.0572 1.1805 1.5214 0.71637 1.005-1.005 2.1327-0.63778 6.1458 2.001 4.5868 3.0161 8.941 5.426 12.813 7.0917 1.952 0.83968 4.159 1.8703 4.9045 2.2903 2.9861 1.6821 13.805 6.3928 14.683 6.3928 0.11386 0 0.15342-0.36512 0.0879-0.81137-0.0918-0.62537 0.0497-0.98751 0.61701-1.5797 0.68591-0.71594 0.70166-0.78003 0.23105-0.9403-1.6035-0.54607-3.0272-1.422-4.0769-2.5084-1.0046-1.0397-1.3973-1.2604-2.5135-1.413-3.0779-0.42078-6.2819-2.831-7.7941-5.863-0.82623-1.6566-1.0248-4.1018-0.44573-5.4878l0.41354-0.98975-1.4631-2.2446c-3.7232-5.7119-5.3897-11.564-5.3934-18.939-3e-3 -6.6562 1.8921-12.619 6.4411-20.263 2.1658-3.6391 4.0623-5.7264 6.9473-7.6459l2.21-1.4705-0.48797-0.9713c-1.6482-3.2808-1.2688-7.3289 0.78672-8.3918l0.80841-0.41804 1.6345 1.6736c1.9398 1.9862 3.4982 2.9478 5.446 3.3605 1.3683 0.28989 1.523 0.26331 3.5719-0.61382 5.2902-2.2647 9.7803-2.9527 14.048-2.1523 9.2517 1.7352 18.342 6.0587 22.163 10.541 3.7766 4.4306 7.2946 11.469 8.1334 16.273 0.15987 0.91555 0.52267 2.5717 0.80621 3.6803 0.28354 1.1086 0.51553 2.3041 0.51553 2.6566s0.36403 1.4703 0.80896 2.4841c1.1634 2.6508 1.6768 5.5516 1.2816 7.2414-0.17019 0.7276-0.47903 1.6579-0.68632 2.0674-0.20728 0.40945-0.34013 1.1196-0.29522 1.5782 0.06887 0.70322 0.21598 0.86094 0.93992 1.0077 1.1909 0.24148 1.6439 0.68412 2.3643 2.3105l0.62349 1.4075 1.4503-0.18121c1.5435-0.19284 2.7734 0.27762 2.7734 1.0609 0 0.97729 0.58112 0.4925 1.6536-1.3795 2.6797-4.6775 5.699-10.379 6.4797-12.237 3.8007-9.0435 5.8567-12.964 7.93-15.123l0.9295-0.96765-0.5875-1.7654c-0.32312-0.97099-0.67623-2.7977-0.78469-4.0594-0.13928-1.6203-0.51941-3.2192-1.2943-5.4442-1.2884-3.6995-1.382-4.9234-0.4477-5.8576 0.73648-0.73648 1.4367-0.81565 2.4732-0.27964 0.94395 0.48814 1.4796 1.1047 2.3633 2.7204l0.73181 1.338 5.62e-4 -4.6615c4.98e-4 -4.1296 0.06088-4.7822 0.52917-5.7198 0.9386-1.8792 2.8963-2.2226 3.7092-0.65069 0.22664 0.43827 0.50674 1.4783 0.62244 2.3113 0.19397 1.3963 0.22706 1.4525 0.42434 0.72067 0.53443-1.9825 1.8591-3.9485 2.7841-4.132 0.82215-0.16312 1.8745 0.32012 2.1236 0.97513 0.23749 0.62464-0.03313 3.6782-0.44215 4.9891-0.09515 0.30494 0.18834 0.11376 0.70663-0.47654 0.47604-0.54218 1.2066-1.1622 1.6234-1.3777 0.71653-0.37053 0.79571-0.35415 1.4498 0.29993 0.62645 0.62645 0.67639 0.82361 0.52812 2.0852-0.09007 0.76632-0.33815 1.8876-0.55129 2.4917-0.43381 1.2295-0.39811 1.2755 0.52241 0.67235 0.88906-0.58253 1.8694-0.28639 2.5288 0.76387 0.94659 1.5078 0.40671 3.344-2.2733 7.732-1.1908 1.9496-1.3417 2.348-2.2554 5.9531-0.71489 2.8208-1.4448 4.5438-2.2421 5.2929l-0.62003 0.58249 0.89552 1.2465c1.1641 1.6203 2.8044 5.2061 3.7914 8.2879 1.2758 3.9837 2.9266 10.529 3.2006 12.69 0.35767 2.821-0.25326 8.4876-1.1811 10.955-1.3499 3.5899-6.2196 12.262-9.864 17.566-6.5126 9.4787-9.2971 12.829-14.61 17.577-1.9645 1.7558-5.1792 4.809-7.1438 6.7849s-3.8514 3.7645-4.1931 3.9747l-0.62127 0.38218 0.28924 4.2277c0.6345 9.2745 0.87341 20.086 0.7073 32.009-0.22329 16.027-0.83441 39.147-1.3427 50.8-0.72495 16.619-0.97914 20.469-1.7382 26.326-0.60659 4.6805-0.87578 5.715-1.586 6.0952-0.74324 0.39777-4.9145 1.575-6.2099 1.7525-0.61578 0.0844-1.2671 0.24463-1.4474 0.35606-0.49826 0.30794 0.81649 2.5272 3.1849 5.376 2.2712 2.7318 4.2261 5.5797 4.2261 6.1564 0 0.62734-2.0547 2.6662-3.2532 3.2281-3.5203 1.6504-10.016 2.4812-14.077 1.8003zm9.9496-2.6299c2.5928-0.66658 4.3944-1.4295 4.9465-2.0947 0.23743-0.28609 0.22263-0.48874-0.0642-0.87924-0.35314-0.48076-0.4121-0.48434-1.1208-0.0681-0.41141 0.24165-2.1764 0.81986-3.9222 1.2849-2.7743 0.73902-3.6243 0.84927-6.7461 0.87503-3.2525 0.0268-3.7481-0.0341-5.5425-0.68131-1.0838-0.39092-2.0287-0.65265-2.0998-0.58161-0.071 0.071-0.0159 0.45119 0.12252 0.84479 0.72652 2.0659 8.6654 2.7814 14.427 1.3003zm-1.7235-3.3447c4.8582-0.97237 5.3905-1.098 5.5169-1.3026 0.0693-0.11214-0.65548-1.2643-1.6106-2.5603-1.8965-2.5734-2.6594-3.9157-3.1411-5.5271-0.30735-1.0282-0.33846-1.0494-1.4198-0.97136-0.60808 0.0439-1.4889 0.19222-1.9573 0.32959-0.46842 0.13737-2.965 0.32532-5.548 0.41768l-4.6964 0.16791v9.1396l1.5214 0.3001c0.83674 0.16505 1.6404 0.34269 1.7859 0.39474 0.94157 0.33681 7.197 0.0824 9.549-0.38833zm-3.4636-11.99c1.3097-0.24361 3.6909-0.62511 5.2917-0.84776 3.606-0.5016 6.1308-1.0522 6.5963-1.4385 0.50553-0.41956 1.2329-3.492 1.4064-5.941l0.14805-2.0893-1.6812 0.1902c-0.92463 0.10461-1.8656 0.28874-2.091 0.40917-0.66958 0.35775-11.92 0.93634-17.401 0.89488-3.9782-0.0301-5.6773-0.15795-7.8052-0.58735-1.496-0.30189-3.9702-0.73913-5.4982-0.97165-5.4884-0.8352-9.8126-2.1606-16.148-4.9494-1.8146-0.79879-3.7755-1.6025-4.3575-1.786-1.8773-0.59182-7.6611-3.6589-9.814-5.2043-1.1508-0.82603-2.7471-1.9172-3.5475-2.4249-8.6154-5.4644-17.392-14.609-22.199-23.13-0.47206-0.83675-0.91163-1.5214-0.97683-1.5214-0.23778 0-2.2239 1.3982-2.2239 1.5656 0 0.0948-0.37772 0.3955-0.83938 0.66821-1.3823 0.81655-2.8648 2.2904-2.8648 2.8482 0 0.92857 2.4213 5.2515 5.6747 10.132 2.5353 3.8029 3.8162 5.4228 6.3569 8.0398 3.9262 4.0439 11.627 10.715 14.52 12.578 1.1856 0.76367 5.8467 3.1831 10.358 5.3764 7.6433 3.7162 8.4815 4.0604 12.303 5.0522 5.7074 1.4812 10.927 2.6128 14.817 3.2122 4.3545 0.67106 16.204 0.62661 19.976-0.0749zm3.7042-10.764c1.4552-0.13462 4.1896-0.3115 6.0764-0.39308 1.8868-0.0816 3.5113-0.23572 3.6099-0.34255 0.31569-0.34183 0.42631-5.089 0.11859-5.0896-0.38221-7.4e-4 -4.7374 0.74019-6.3653 1.0829-0.7276 0.15318-3.4312 0.39429-6.008 0.53581-4.1914 0.23019-5.0836 0.20003-8.4667-0.28617-8.6714-1.2462-10.609-1.6054-14.894-2.7617-2.4738-0.66749-5.0337-1.3548-5.6885-1.5274-3.2569-0.85847-12.949-5.6137-17.462-8.5681-4.964-3.2489-11.124-7.9217-14.106-10.7-2.9753-2.7722-10.868-12.561-11.496-14.257-0.20483-0.55369-0.30799-0.51668-2.9206 1.048l-2.7083 1.6219 0.57538 0.96512c0.58744 0.98537 1.6524 2.5938 5.2831 7.9796 2.3705 3.5164 7.6885 8.9511 11.217 11.463 8.5577 6.0928 14.5 9.6954 18.389 11.148 1.0914 0.4076 3.4727 1.395 5.2917 2.1944 4.9596 2.1793 9.8736 3.7089 14.274 4.4432 2.1172 0.35327 4.6492 0.83374 5.6267 1.0677 0.97743 0.23397 2.6443 0.52473 3.7042 0.64614 2.2295 0.25539 12.073 0.089 15.95-0.26961zm2.3812-6.0433c1.0186-0.15494 3.1746-0.36358 4.7909-0.46366l2.9389-0.18197 0.17658-5.8517c0.25668-8.5065 1.1643-45.217 1.5021-60.753 0.28395-13.061 0.20361-22.655-0.29465-35.19-0.34044-8.564-0.32788-10.124 0.08043-9.9897 0.20576 0.0675 0.41062 0.95062 0.54217 2.3372 0.11629 1.2258 0.29489 2.5594 0.39688 2.9637l0.18543 0.7351 2.3194-1.7378c2.8052-2.1019 11.363-10.216 13.864-13.145 1.8834-2.2059 5.9253-7.7195 9.7128-13.249 2.0284-2.9615 6.8708-10.809 7.2015-11.671 0.10552-0.27497-0.2407-0.39002-1.4332-0.47628-2.6348-0.19058-4.7291-1.4173-8.0119-4.6929-2.4071-2.4018-2.9584-3.1196-3.8774-5.0488-1.3339-2.8002-3.9947-10.698-5.6604-16.801-0.27801-1.0186-0.56616-2.0236-0.64032-2.2333-0.07416-0.20966-1.009 1.4572-2.0773 3.7042-2.1071 4.4316-6.2028 11.386-8.5453 14.509-1.1482 1.531-1.5985 2.4244-2.0671 4.101-1.5866 5.677-5.7965 14.133-9.4734 19.028-3.3157 4.4144-7.3688 7.9966-9.9315 8.7776-0.71136 0.2168-0.71248 0.16548 0.11803 5.4264 0.45718 2.8961 0.60749 10.784 0.46635 24.474-0.02992 2.9019-1.4713 10.365-2.2995 11.906-0.63553 1.1826-3.2763 3.1174-4.8467 3.551-0.86547 0.23897-1.0809 0.17938-2.306-0.63778-1.7283-1.1528-4.0753-3.3978-4.3742-4.1841-0.15005-0.39464-0.0612-1.5797 0.25298-3.373 0.76771-4.3823 1.5412-9.5047 1.6959-11.231 0.0782-0.87312 0.33609-3.4276 0.57297-5.6766 0.32037-3.0416 0.3955-5.5493 0.2933-9.7896-0.0756-3.1353-0.21524-5.9408-0.31037-6.2344-0.16569-0.5114-0.29766-0.52454-3.1347-0.31233-1.629 0.12184-4.287 0.16422-5.9067 0.0942-2.6657-0.1153-3.3398-0.25885-7.1102-1.514-4.3375-1.444-6.673-2.7202-10.185-5.5657-2.2519-1.8243-3.3037-2.3345-6.4637-3.1352-3.3884-0.85858-7.627-2.4894-13.248-5.0972-2.1828-1.0127-5.0403-2.2622-6.35-2.7765s-3.3824-1.4764-4.606-2.1379l-2.2248-1.2027 0.15922 0.7961c0.38738 1.9369 0.49036 6.2601 0.2141 8.988-0.24864 2.4552-0.58438 3.7944-2.0062 8.0025-2.3103 6.8374-4.8992 12.448-6.5718 14.241l-0.79341 0.85082 1.2557 0.53824c0.69062 0.29603 1.3032 0.53824 1.3614 0.53824 0.0581 0 1.8936 0.76909 4.0788 1.7091 2.1852 0.93999 4.7588 1.9517 5.7189 2.2483 2.0083 0.6203 13.995 2.9703 22.332 4.3782 3.1287 0.52835 6.3895 1.1387 7.2462 1.3563 0.8567 0.2176 1.647 0.29885 1.7562 0.18056 0.31305-0.33911 1.7816-6.3574 2.0861-8.5495 0.15164-1.0914 0.39768-3.5858 0.54676-5.543 0.14908-1.9573 0.37878-3.6664 0.51046-3.7981 0.3795-0.3795 0.6465 3.5876 0.45918 6.8226-0.21458 3.7059-0.69673 6.6549-1.712 10.471-0.44298 1.6651-1.3022 5.4683-1.9095 8.4514-0.60725 2.9832-1.5669 7.042-2.1326 9.0195-0.56566 1.9776-1.1051 4.1802-1.1987 4.8948-0.24437 1.8651-0.72463 2.6823-2.6354 4.484-1.9388 1.8282-1.9841 2.0305-1.301 5.8111 0.21034 1.1642 0.38659 2.8812 0.39167 3.8156 0.0111 2.0412-0.40804 2.6595-1.8177 2.6814-1.655 0.0257-3.1414 0.80789-3.7613 1.9792-0.30523 0.57677-0.70956 1.2273-0.89852 1.4456-0.18895 0.21828-0.95686 1.4089-1.7064 2.6458s-1.6928 2.5466-2.096 2.9104c-0.40324 0.3638-1.8548 1.9001-3.2256 3.414-1.5837 1.749-4.1262 4.0642-6.9733 6.35-2.4645 1.9786-4.6045 3.6805-4.7556 3.782-0.173 0.11618-0.0663 0.41009 0.28822 0.79375 0.30962 0.33508 1.1649 1.7403 1.9007 3.1228 1.9762 3.7133 7.1863 9.442 11.606 12.762 1.4218 1.0678 3.2994 2.4842 4.1725 3.1475 6.7837 5.1532 17.044 10.883 23.151 12.928 2.9826 0.99889 11.131 3.1693 12.876 3.4299 0.99436 0.14841 2.82 0.45827 4.0569 0.68857 5.8057 1.081 7.9022 1.3077 11.774 1.2735 2.1828-0.0193 4.8022-0.16183 5.8208-0.31676zm-34.427-31.773c-3.211-2.5746-8.7154-10.44-12.237-17.485-2.2078-4.4174-3.5729-8.1609-3.4309-9.4084 0.11003-0.96647 0.79579-1.0369 0.89652-0.0921 0.0943 0.88486 3.578 7.8401 5.8501 11.68 2.5062 4.2354 6.3066 9.9274 8.7816 13.153 1.924 2.507 2.2756 3.1887 1.6449 3.1887-0.11792 0-0.79551-0.46595-1.5057-1.0354zm32.178-10.631c-8.4568-1.0956-19.166-6.072-26.987-12.541-6.1905-5.1198-16.135-16.005-15.524-16.994 0.0702-0.11357 2.7636 2.3767 5.9854 5.5339 8.849 8.6717 13.472 12.451 19.365 15.83 4.9877 2.8599 10.853 5.2372 16.664 6.7548 3.2685 0.85346 3.9064 1.1303 3.377 1.4655-0.41227 0.26109-0.49291 0.2597-2.88-0.0495zm-95.673 32.346c0.0758-0.12259-0.51051-0.78255-1.3028-1.4666-1.7305-1.494-2.5839-2.8888-3.1752-5.1897-0.489-1.9029-0.56702-5.463-0.14998-6.8442l0.26905-0.89106-0.85037 0.16318c-4.3385 0.8325-2.7768 11.533 2.0305 13.912 1.1 0.54448 2.9254 0.72596 3.1788 0.31602zm6.7726-4.6217c1.2369-1.0118 2.6908-2.2361 3.2308-2.7208l0.98185-0.88124-1.0938-1.796c-1.2949-2.1262-3.1189-5.9367-3.1189-6.5157 0-0.68325-0.46184-0.74921-1.5123-0.21596-1.2857 0.65265-5.585 1.8211-7.5497 2.0518l-1.5214 0.17864v2.4348c0 2.5199 0.62886 5.6607 1.4682 7.3327 0.24167 0.48143 1.1596 1.6114 2.04 2.5111l1.6006 1.6358 1.6128-1.0878c0.88706-0.59829 2.6249-1.9156 3.8618-2.9273zm77.126-67.012c2.0329-1.5348 2.9191-2.8535 3.1314-4.6598 0.0911-0.7752 0.47876-2.7774 0.86146-4.4492 0.60504-2.6432 0.7228-3.9199 0.90275-9.7867 0.18828-6.1383 0.03527-13.67-0.4318-21.256l-0.17656-2.8676-0.68841 0.14645c-0.37863 0.0806-1.4416 0.2919-2.3622 0.46968l-1.6738 0.32322 0.18059 0.94274c0.50645 2.6439 0.64644 4.5521 0.92319 12.584 0.25504 7.4023 0.23836 9.6374-0.10959 14.684-0.54488 7.9035-1.0576 11.334-2.1746 14.552-0.12247 0.35278-0.16138 0.35278-0.35015 0-0.1168-0.21828-0.0565-1.4393 0.1341-2.7134 0.60973-4.0766 1.0093-11.991 1.0585-20.967 0.0458-8.3639-0.20067-18.262-0.46126-18.523-0.0681-0.0681-0.77022 0.20213-1.5603 0.60044-0.7901 0.39832-1.4665 0.73429-1.5031 0.74662-0.0366 0.0123 0.18241 0.96482 0.48665 2.1167 0.47433 1.7958 0.55921 2.9426 0.59567 8.0474 0.061 8.5403-0.7811 16.423-2.5809 24.16-0.23061 0.9913-0.41929 1.9656-0.41929 2.1652 0 0.36341 4.1411 4.9022 4.4606 4.8889 0.0933-4e-3 0.88401-0.54637 1.7571-1.2056zm-73.721-29.31c0.80023-0.85179 3.3733-7.1096 5.6068-13.636 2.1038-6.1473 2.5225-8.3751 2.7399-14.579l0.14372-4.101-1.1192-0.66146c-0.61557-0.3638-1.1941-0.69634-1.2856-0.73897-0.0915-0.0426-0.24536 0.73127-0.34187 1.7198-0.4718 4.8325-1.2026 8.6376-2.835 14.762-1.8744 7.032-4.1523 13.358-5.5331 15.364l-0.79466 1.155 1.2636 0.65768c1.5607 0.81233 1.4489 0.80935 2.1553 0.0574zm-3.5445-2.3454c0.59704-1.4921 2.7995-8.8192 3.8393-12.772 2.7455-10.438 2.778-10.574 3.8521-16.14 0.64888-3.3622 0.65279-3.3504-1.5689-4.7351-1.0748-0.66991-2.1301-1.218-2.3451-1.218-0.64111 0-1.7092 2.8349-2.0435 5.424-0.47396 3.6703-0.95009 5.9097-2.0088 9.4484-0.53508 1.7884-1.2496 4.3932-1.5878 5.7885-0.8942 3.689-2.3526 7.6358-4.2357 11.463-0.20854 0.4238-0.33703 0.81268-0.28554 0.86417 0.25327 0.25327 5.3727 2.9553 5.6346 2.974 0.1661 0.0118 0.50334-0.4817 0.74942-1.0967zm-4.7797-11.185c0.49802-1.6007 1.2142-4.1606 1.5915-5.6885s0.9859-3.7851 1.3525-5.0159l0.66652-2.2378-2.0731-2.0731-0.3113 1.4223c-0.17122 0.78225-0.42728 2.5534-0.56903 3.9358-0.14174 1.3824-0.66666 4.3382-1.1665 6.5683-0.49982 2.2301-0.9784 4.6709-1.0635 5.424-0.0851 0.75304-0.20228 1.6668-0.26037 2.0306-0.20033 1.2545 0.89975-1.3651 1.8333-4.3656zm77.9 1.0243c0.82431-0.21459 1.5925-0.48372 1.7071-0.59807 0.50509-0.50409-8.8125-11.065-11.924-13.516-0.68671-0.5408-1.8277-1.3187-2.5355-1.7286l-1.287-0.74529-2.4172 0.43609c-1.3295 0.23985-4.1436 0.62316-6.2537 0.8518-2.11 0.22863-4.2532 0.52449-4.7625 0.65746-0.88893 0.23207-0.92604 0.29049-0.92604 1.4577 0 1.112-0.11031 1.3202-1.2901 2.4349-1.2578 1.1884-1.28 1.236-0.88628 1.9005 0.22211 0.37486 0.92173 0.96453 1.5547 1.3104 0.63297 0.34586 2.7251 1.5736 4.6492 2.7283 4.6146 2.7694 9.9238 4.6518 13.964 4.9511 4.5641 0.33806 8.7889 0.28115 10.408-0.14019zm-9.4815-6.7272c-2.8965-1.0874-6.9865-2.3268-9.5912-2.9063-0.83674-0.18618-1.5214-0.43862-1.5214-0.56098 0-0.35969 2.5077-0.25563 4.6868 0.19447 3.7272 0.76987 9.5266 3.1448 9.804 4.0148 0.16107 0.50513-0.36311 0.39-3.3782-0.74197zm16.239 4.5128c3.5197-1.3761 4.8685-2.2559 7.4562-4.8636 3.9106-3.9406 7.4643-9.4654 11.593-18.023 2.1204-4.3949 2.8714-6.4521 2.7644-7.5722l-0.08549-0.89444-1.7202 0.07726c-2.0387 0.09157-2.4127-0.12234-3.3933-1.9406-1.0492-1.9455-1.4572-1.8758-3.7821 0.64604-1.0738 1.1648-3.5597 3.5565-5.5243 5.315-4.17 3.7325-4.9154 4.524-6.6059 7.0148-2.2801 3.3596-2.6371 4.3052-3.18 8.4225-0.27183 2.0616-0.565 4.9985-0.65149 6.5264-0.0865 1.528-0.22146 3.5818-0.29993 4.5641-0.17438 2.1826-0.25034 2.1665 3.4286 0.72809zm2.5462-7.2487c0-0.94835 1.0137-4.0502 1.9115-5.8487 1.8109-3.6279 5.7042-8.574 6.5319-8.298 0.16118 0.0537-0.7265 1.5856-1.9726 3.4041-2.0984 3.0622-5.9415 10.188-5.9415 11.016 0 0.19814-0.11906 0.36025-0.26458 0.36025-0.14552 0-0.26458-0.28512-0.26458-0.63359zm-7.0115 2.2874c0-2.7286 0.092-6.1518 0.20438-7.607 0.19621-2.54 0.18707-2.6141-0.22844-1.8521-0.57394 1.0525-2.4426 2.9909-3.3362 3.4608-0.39296 0.20661-0.98827 0.37748-1.3229 0.37971-1.1634 8e-3 -1.3136 0.29517-0.97646 1.868 0.22091 1.0305 0.60404 1.7709 1.3588 2.6258 0.71851 0.81387 4.3009 5.8824 4.3009 6.0852v-4.9605zm-32.501-6.801c-0.12088-0.88193-0.0568-1.2832 0.25461-1.5946 0.37846-0.37846 0.35238-0.49974-0.28811-1.3395l-0.70425-0.92333-1.1077 0.78432c-0.60922 0.43137-1.4382 0.86374-1.8422 0.96083-0.70814 0.17018-0.65588 0.23147 1.4552 1.7065 1.2044 0.84148 2.2357 1.5422 2.2918 1.5571 0.0562 0.0149 0.0294-0.5032-0.0594-1.1514zm-43.197-5.4048c0.22475-1.6166 0.65991-3.5233 0.96703-4.2373l0.55841-1.298-1.4448-1.4152c-1.3142-1.2873-1.4706-1.5657-1.73-3.081-0.1569-0.91617-0.21798-2.4044-0.13573-3.3073 0.0997-1.0946 9e-3 -2.1783-0.27193-3.2528-0.23181-0.88619-0.54991-2.8507-0.70688-4.3656-0.15698-1.5149-0.34203-3.0323-0.41123-3.3719l-0.12582-0.6175-0.51021 0.64863c-0.28062 0.35675-0.80296 1.4552-1.1608 2.4409-0.35781 0.98574-0.83292 1.9746-1.0558 2.1975-0.36394 0.36394-0.43193 0.33507-0.667-0.2832-0.23115-0.60797-2.0586-3.4758-3.7903-5.9482-1.3589-1.9401-1.333-0.52318 0.0616 3.37 1.2097 3.3769 1.164 3.175 0.71849 3.175-0.18691 0-0.91291-0.68461-1.6133-1.5214-2.0266-2.4211-4.9092-5.3168-5.4697-5.4947-0.36497-0.11584-0.51464-0.03891-0.51464 0.2645 0 0.52246 0.35067 1.2163 2.7155 5.3728 1.0175 1.7883 1.766 3.3354 1.6634 3.438-0.10256 0.10257-1.1356-0.84867-2.2956-2.1139-1.9027-2.0753-4.3518-4.1787-4.8655-4.1787-0.55269 0 0.28592 2.169 1.6707 4.3212 2.2606 3.5134 3.0514 4.9394 2.8506 5.1402-0.0974 0.09742-0.37977 0.03475-0.62745-0.13926-0.87307-0.6134-5.1979-2.9431-5.2909-2.8501-0.0518 0.05181 0.2422 0.78594 0.65337 1.6314 0.47608 0.97892 1.4682 2.2517 2.732 3.5047 1.0914 1.0822 2.8178 2.9804 3.8365 4.2184 2.0541 2.4964 3.8464 3.8787 5.6024 4.3209 1.3498 0.33989 4.2246 2.8701 6.4768 5.7004 1.6295 2.0479 1.5724 2.1074 2.1808-2.2688zm-10.321-9.9759c-0.53878-2.1467 0.70713-6.4671 2.1347-7.4025 0.99853-0.65427 1.2744-0.20202 0.68277 1.1194-0.27133 0.60603-0.69567 1.9751-0.94299 3.0424-0.85126 3.6736-0.93585 3.9249-1.3211 3.9249-0.2099 0-0.45891-0.3079-0.55336-0.68423zm81.218 13.494c0.89413-0.23051 2.0424-0.72969 2.5517-1.1093 1.7224-1.2837 3.9819-3.8436 5.6799-6.4352 1.7263-2.6347 3.3067-4.3339 7.0215-7.5493 1.9749-1.7095 2.1-1.8812 2.1074-2.8943 0.0043-0.59235-0.23806-2.1997-0.53867-3.5719-0.30061-1.3722-0.84085-3.8641-1.2005-5.5376-1.4355-6.679-1.9044-8.0353-3.4082-9.8584-0.7592-0.92041-2.4399-2.52-3.7349-3.5546-1.295-1.0346-2.6432-2.1904-2.996-2.5685-0.51409-0.55085-0.88179-0.68524-1.8521-0.67694l-1.2106 0.01036 0.86395 0.37545c1.0441 0.45372 1.3779 1.1425 0.76939 1.5874-0.24035 0.17575-1.3236 0.39449-2.4071 0.48609-1.0836 0.09159-3.7689 0.42419-5.9674 0.7391-3.1876 0.45659-4.1164 0.50884-4.5851 0.25797-0.46459-0.24864-0.94756-0.22981-2.3036 0.0898-5.5494 1.3079-12.349-0.54126-15.977-4.3454-0.81248-0.85179-1.5232-1.4693-1.5794-1.3721-0.0562 0.09712-0.18181 1.0696-0.27912 2.161-0.19829 2.224 0.15467 5.2542 0.79984 6.8667l0.42806 1.0698 0.81943-0.6895c0.70755-0.59536 0.98127-0.66732 2.0048-0.52703 1.2919 0.17707 2.4114 0.77657 2.4086 1.2898-9.9e-4 0.17855-0.66164 0.86041-1.4681 1.5153-1.9898 1.6157-5.4236 5.5382-6.5069 7.4328-1.2997 2.2732-2.342 2.4514-2.342 0.40045 0-1.2805 0.82581-4.0164 1.6781-5.5595 0.44889-0.81274 0.49411-1.0597 0.21171-1.156-0.19752-0.06735-0.98724-0.63407-1.7549-1.2594l-1.3958-1.1369-0.16039 0.96997c-0.0882 0.53348-0.16542 2.1606-0.17156 3.6158-6e-3 1.4552-0.17614 4.0326-0.37779 5.7275-0.30696 2.5802-0.30996 3.5152-0.0185 5.7459 0.32075 2.4544 0.47877 2.9096 2.0071 5.7819 0.9124 1.7147 2.0954 3.8321 2.6288 4.7052 0.53343 0.87313 1.7703 3.0432 2.7486 4.8224 0.97828 1.7792 1.8619 3.2863 1.9636 3.3492 0.23962 0.1481 6.9637-0.76739 10.989-1.4961l3.134-0.56741 1.4265 0.74685c0.78456 0.41077 1.9933 1.1498 2.686 1.6424 1.1895 0.84573 1.3824 0.89549 3.4711 0.89549 1.2164 0 2.9432-0.1886 3.8373-0.41911zm-4.0141-5.7101c-2.3673-0.41285-4.4675-2.4192-5.1761-4.9448-0.6026-2.1476-0.56721-2.6844 0.177-2.6844 1.0026 0 3.6708-0.76679 5.1335-1.4752 0.75557-0.36596 1.9916-1.2208 2.7467-1.8998 0.7551-0.67891 1.5657-1.2633 1.8012-1.2986 0.48528-0.07273 2.5395 1.8177 3.0698 2.825 0.90673 1.7224 0.79423 5.409-0.21142 6.9285-1.1219 1.6952-4.9729 2.9971-7.5407 2.5492zm4.9173-1.8555c1.6288-0.81732 2.1467-1.6056 2.3162-3.5247 0.13373-1.5144 0.10473-1.6147-0.63003-2.1776-1.1627-0.89081-3.9562-0.92995-5.6984-0.0798-1.5393 0.75114-2.8031 1.9532-3.4199 3.253-0.60537 1.2757-0.26793 2.0769 1.1882 2.821 0.97103 0.4962 1.4405 0.56533 3.0826 0.45389 1.2855-0.0872 2.3489-0.3381 3.1612-0.74575zm-29.771-6.7458c-0.4652-0.32451-0.59531-0.67131-0.59531-1.5868 0-3.8964 4.8806-7.3551 9.657-6.8435 1.8489 0.198 4.145 1.1614 5.2258 2.1926 0.80702 0.77005 0.9182 1.1244 0.35278 1.1244-0.20616 0-0.42214 0.14193-0.47996 0.31539-0.079 0.23691-0.7433 0.19527-2.6698-0.16736l-2.5646-0.48275-1.784 0.59743c-2.2161 0.74213-3.8954 1.9452-5.354 3.8358-0.61854 0.80174-1.1399 1.4515-1.1586 1.4438-0.0187-8e-3 -0.30186-0.20075-0.62928-0.42915zm20.501-3.4596c-0.6313-0.70052-0.79881-1.7147-0.37814-2.2894 0.4519-0.61732 0.97798-0.34827 0.97798 0.50016 0 0.62556 0.50174 1.3171 1.1004 1.5166 0.50689 0.16896-0.0155 0.73561-0.67818 0.73561-0.33266 0-0.79261-0.20836-1.0221-0.46302zm-19.773-3.4727c0-0.87223 4.03-2.7098 5.7961-2.6429 0.7009 0.02656 0.77693 0.0651 0.28931 0.14663-1.5141 0.25317-4.0034 1.2229-5.0087 1.9511-0.59217 0.42897-1.0767 0.67427-1.0767 0.5451zm24.251-3.8573c-0.18223-0.47487 0.28304-2.6899 0.78898-3.756 0.74355-1.5669 2.9096-3.7073 4.6133-4.5586 2.0459-1.0224 3.9077-1.2558 5.8893-0.73828 2.5413 0.66363 3.8066 1.8393 3.461 3.2161-0.15214 0.60619-0.28347 0.69055-0.87197 0.56011-0.38107-0.08446-1.6456-0.23001-2.81-0.32345-1.9125-0.15346-2.2962-0.09945-3.9687 0.55873-2.0938 0.82395-3.1727 1.7234-4.6437 3.8717-0.77808 1.1363-1.1748 1.4883-1.6776 1.4883-0.36214 0-0.71344-0.14332-0.78065-0.31849zm0.36394-5.8595c-0.019-0.66026 1.6023-2.4138 3.0094-3.2548 1.0658-0.63698 1.9079-0.92811 2.882-0.99626l1.3762-0.09629-1.7269 0.59938c-1.8468 0.64099-4.129 2.1588-4.9994 3.325-0.29311 0.39269-0.53671 0.58302-0.54132 0.42296zm-26.93 28.676c0.69122-0.30923 1.2568-0.66331 1.2568-0.78685 0-0.12353-0.30883-0.71383-0.68629-1.3118-1.1087-1.7563-3.2554-6.2941-3.438-7.2674-0.15373-0.81943-0.29532-0.93468-1.6222-1.3204-2.0958-0.60925-2.9812-0.56195-4.636 0.24768-2.4699 1.2084-2.972 3.2811-1.5057 6.2154 1.2044 2.4102 3.0895 3.9116 5.8636 4.6702 1.6528 0.45197 3.0517 0.32088 4.7678-0.44683zm95.708-6.613c0.586-0.9636 0.38111-1.2562-0.88429-1.263-1.6934-9e-3 -5.4685-2.8032-7.5123-5.5603-2.5559-3.4479-5.9408-10.411-8.2316-16.933-0.58778-1.6735-1.4269-4.0508-1.8646-5.2829l-0.79596-2.2402-1.1246 2.5424 0.59116 1.3659c0.32514 0.75125 1.6312 4.402 2.9023 8.1128 3.9123 11.421 4.2704 12.13 7.9945 15.826 2.9228 2.9004 5.222 4.223 7.4127 4.264 0.84699 0.0159 1.0734-0.10851 1.5127-0.83095zm1.1561-2.5238c0.20416-0.40018 0.55262-1.5313 0.77436-2.5135l0.40317-1.7859h-0.64841c-0.35663 0-0.96992-0.16942-1.3629-0.37649-0.78766-0.41506-2.8883-2.536-4.344-4.386-2.5215-3.2044-6.8175-12.123-8.9213-18.521-1.0947-3.329-2.4688-6.6146-2.7663-6.6146-0.05213 0-0.71634 0.8991-1.476 1.998-1.6228 2.3474-1.6383 2.085 0.38191 6.4596 0.7751 1.6785 1.829 4.1233 2.342 5.433 3.0373 7.7544 6.4773 14.142 9.3033 17.275 1.861 2.0631 3.2792 2.965 5.8838 3.7417 0.03264 0.01 0.22639-0.30972 0.43054-0.7099zm-106.29-3.2304c1.6114-0.6029 2.623-0.6743 3.7082-0.26171 0.53374 0.20293 0.25431-0.15934-1.0322-1.3382-2.1355-1.9568-4.1598-4.9051-4.9263-7.1749-0.77454-2.2936-1.2063-5.8062-0.97668-7.9454 0.17083-1.5913 0.70498-2.9433 1.0291-2.6048 0.0695 0.07253 0.26291 1.4128 0.42991 2.9784 0.35462 3.3245 1.0706 6.309 2.0014 8.342 0.71069 1.5523 3.0131 4.9358 3.2188 4.7302 0.0685-0.06848-0.0199-0.85826-0.1963-1.7551-0.19961-1.0146-0.25901-2.5486-0.15724-4.0606 0.38582-5.7325 0.72692-9.1845 1.1101-11.235l0.40935-2.1903-0.78219-1.6461c-0.97204-2.0457-1.2677-3.4941-0.82277-4.0303 0.49269-0.59365 1.0559-0.47656 1.0559 0.21952 0 1.3265 3.3348 6.0109 5.2917 7.4332 1.9329 1.4049 2.2366 1.3753 1.2094-0.11793-1.3664-1.9863-1.6069-2.9387-1.6015-6.3413 4e-3 -2.5405 0.10601-3.3047 0.61782-4.6302 0.33714-0.87312 0.63262-1.9348 0.65661-2.3592 0.0575-1.0169 0.63063-1.1784 0.97427-0.27454 0.14984 0.39411 1.0733 1.5091 2.0522 2.4777 2.4646 2.4389 5.6051 3.9197 9.6551 4.5527 1.8116 0.28312 5.3775 0.19071 7.2674-0.18835l0.85523-0.17154-0.99358-0.71974c-2.4666-1.7868-5.3264-5.8198-5.7761-8.1457-0.20833-1.0774 0.33444-1.156 1.5712-0.22761 2.0308 1.5246 7.9014 3.9481 11.69 4.826 2.3903 0.55386 9.9395 0.71533 10.432 0.22312 0.32698-0.32698-2.0542-3.1909-6.4789-7.7923-2.9585-3.0766-3.4115-3.71-2.6536-3.71 1.3641 0 10.721 8.9951 11.667 11.216 0.63414 1.4885 0.15458 1.9023-2.8829 2.4877l-1.0291 0.19832 1.6317 1.0071c1.8816 1.1614 4.5069 3.5102 5.043 4.512 0.20222 0.37786 0.46662 0.68701 0.58755 0.68701 0.27578 0 0.26349-5.0671-0.01829-7.5406-0.11605-1.0186-0.15673-2.0009-0.0904-2.1828 0.24576-0.67397 0.9022-0.29739 1.3836 0.79375 1.1452 2.5957 1.3306 6.8663 0.4099 9.4452l-0.42019 1.177 0.60571-0.56903c0.73254-0.68819 2.3424-1.3902 3.1697-1.3822 0.3321 0.0032 1.1098 0.2355 1.7283 0.51623 1.0608 0.48151 1.4221 0.425 0.88477-0.1384-0.13184-0.13824-0.56233-1.7396-0.95664-3.5586-0.96634-4.4578-1.809-6.722-3.817-10.256-2.215-3.8986-4.7816-7.249-6.9443-9.0654-4.5791-3.8458-15.545-8.0376-21.909-8.3752-3.2832-0.17415-5.8222 0.23464-10.337 1.6644-3.7565 1.1895-5.3893 1.2546-7.2859 0.29034-1.3907-0.70704-3.808-3.1214-3.808-3.8033 0-0.72778-0.45819-0.09883-0.61014 0.83753-0.20806 1.2821 0.24587 3.8952 0.92918 5.3489 0.38874 0.82701 0.9217 1.4169 1.7108 1.8935 0.63041 0.38078 1.107 0.81211 1.0591 0.95851-0.13314 0.40698-1.4667 0.4771-2.3235 0.12219-0.70716-0.29291-0.86036-0.2405-2.0221 0.69169-0.69133 0.55474-2.512 2.2658-4.0458 3.8023-2.478 2.4823-2.9548 3.1181-4.2774 5.7041-4.3388 8.4834-5.642 14.1-4.9819 21.47 0.5261 5.8748 1.5125 9.2251 4.4101 14.979l0.90987 1.8068 0.67411-0.53025c0.37075-0.29164 1.3235-0.77323 2.1173-1.0702zm106.71-6.7802c-0.32612-2.8729-2.9112-13.132-4.0848-16.21-0.77925-2.0441-2.0885-4.945-2.3828-5.2796-0.03927-0.04465-0.62172 0.30673-1.2943 0.78083-1.3553 0.95531-1.5958 1.5338-2.4198 5.82l-0.43952 2.2863 2.521 5.122c2.6451 5.3742 4.0382 7.5254 6.4671 9.9858l1.467 1.4862 0.20447-0.92604c0.11246-0.50932 0.09519-1.8887-0.03837-3.0653zm-44.216-1.0401c-0.08608-0.08608-0.55689 0.08949-1.0462 0.39016-0.48935 0.30067-1.336 0.66881-1.8815 0.81809-0.9887 0.27059-0.99159 0.27552-0.93438 1.5905l0.05739 1.319 1.9806-1.9806c1.0893-1.0893 1.9102-2.051 1.8241-2.1371zm-2.3329-0.53736c1.3442-0.84235 1.7988-1.4427 2.4163-3.1907 0.42546-1.2044 0.51958-1.9506 0.41358-3.2791-0.2837-3.5555-1.3769-5.6583-3.3524-6.4488-1.181-0.47255-2.0812-0.27714-3.0942 0.67169-1.2375 1.1591-1.2708 1.7664-0.26759 4.8916 0.50665 1.5784 1.1885 4.0798 1.5153 5.5587 0.65258 2.9535 0.59388 2.909 2.369 1.7965zm-51.078-5.1206c0.28957-0.56761 1.1058-1.788 1.8139-2.712l1.2874-1.68-2.1179 0.0126-0.73812 2.1967c-1.0552 3.1404-1.0764 3.2147-0.91649 3.2147 0.0796 0 0.38167-0.46441 0.67125-1.032zm6.2935-7.748c-0.57078-0.36254-1.7029-0.2325-2.3189 0.26636-0.57688 0.46713-0.58112 0.50392-0.13637 1.1827l0.45903 0.70057 1.1616-0.97098c0.81044-0.67744 1.0628-1.0338 0.83466-1.1786zm81.392-5.9705c0.24628-0.47294 0.60604-0.8599 0.79948-0.8599s0.95448-0.63734 1.6912-1.4163c1.4727-1.5572 1.8205-2.438 2.7068-6.8553 0.57524-2.867 0.67684-3.1029 2.7761-6.4459 1.663-2.6483 2.2469-4.1771 1.7755-4.6485-0.37013-0.37013-2.1227 0.77675-3.2186 2.1063-1.1462 1.3905-1.2006 0.46276-0.1562-2.6599 1.0005-2.9914 1.4483-5.4804 0.98593-5.4804-0.60129 0-2.1975 2.0107-3.2821 4.1344-0.62168 1.2173-1.2196 2.2137-1.3288 2.2144-0.36664 0.0022-0.20283-2.6302 0.3088-4.9625 0.45259-2.0632 0.68807-4.08 0.58663-5.0243-0.07042-0.65546-0.83481-0.31066-1.4664 0.66146-0.35454 0.5457-1.0772 2.3912-1.606 4.101-0.52874 1.7099-1.0476 3.1089-1.1531 3.1089s-0.33122-1.1609-0.50165-2.5797c-0.60782-5.06-1.1042-6.29-2.1262-5.2681-0.52369 0.52369-1.0776 4.196-1.1038 7.3186-0.01982 2.3571-0.35918 4.0872-0.8628 4.3984-0.17554 0.10849-1.0853-0.67614-2.2131-1.9087-1.0533-1.1511-2.0017-2.008-2.1077-1.9042-0.10597 0.10376 0.18093 1.6516 0.63757 3.4396 0.45663 1.788 0.82926 3.882 0.82807 4.6533-0.0034 2.1857 1.4243 7.0752 2.8874 9.8881 0.70594 1.3573 1.6024 3.4799 1.9921 4.7168s0.90126 2.7847 1.1368 3.4396l0.42826 1.1906 0.56901-2.249c0.31295-1.2369 0.77051-2.6359 1.0168-3.1089zm1.4886-11.186c-0.93822-1.7531-3.7679-3.9306-4.662-3.5875-0.20968 0.08046-0.45207-0.03829-0.53865-0.2639-0.59402-1.548 2.6281-0.48488 4.824 1.5917 1.1126 1.0521 1.4624 1.5567 1.3956 2.0132-0.11977 0.81906-0.64467 0.94602-1.0191 0.24648zm-59.13 10.894c3.7974-0.17579 3.923-0.19921 2.9104-0.5423-0.63662-0.21569-2.7452-0.40642-5.2917-0.47866-3.7278-0.10574-4.1728-0.07454-3.7265 0.26128 0.42043 0.31635 0.44298 0.42161 0.13229 0.61746-0.20599 0.12986-0.52535 0.42929-0.70969 0.66541-0.30806 0.39461-0.21182 0.39824 1.1906 0.04492 0.83918-0.21142 3.3117-0.46707 5.4945-0.56812zm-6.3908-2.0228c0.52242-0.21828 1.6383-0.40282 2.4797-0.41008l1.5299-0.01321-2.3812-0.87036c-1.3097-0.4787-3.2742-1.335-4.3656-1.9028-1.0914-0.56786-2.0936-1.0798-2.227-1.1376-0.42608-0.18457 0.96753 1.637 2.4556 3.2096 0.79174 0.83674 1.4664 1.5214 1.4992 1.5214 0.0328 0 0.48714-0.17859 1.0096-0.39688z" stroke-width=".90399"/><path transform="matrix(.26458 0 0 .26458 -225.69 -17.198)" d="m663.82 226.15c-2.5018 0.43481-4.081 2.8735-5.3516 4.8691-3.9474 7.8388-5.9502 16.466-9.166 24.604-1.6264-8.613-1.8886-17.534-4.5684-25.936-0.54746-1.787-2.2974-4.2426-4.4297-3.1992-3.1738 1.8134-3.5292 5.899-4.291 9.0977-1.8257 9.7766-1.5652 19.764-2.4707 29.613-0.45214 2.1375-0.66082 4.7151-2.0781 6.3828-3.7983-2.7077-6.7774-6.4559-10.215-9.6328-1.8961-1.6007-3.3894-3.9546-5.7949-4.7637-1.5732 0.83191-0.64696 3.0478-0.56836 4.4844 1.8361 9.6578 4.8292 19.06 5.373 28.906 1.0467 11.124 4.7126 21.833 9.0391 32.07 3.3825 7.2062 6.9788 14.346 9.3828 21.924 1.8832 5.4421 3.3568 11.055 5.6992 16.322 0.67775 1.2821 2.313 0.29185 2.25-0.92578 1.7946-6.2854 3.0376-12.774 5.7559-18.754 1.306-2.3094 4.0753-3.01 5.791-4.9434 4.2526-3.804 8.2851-8.2166 9.9219-13.818 2.6924-8.1353 3.584-16.727 6.0879-24.865 3.9432-9.9823 11.425-18.183 15.02-28.326 0.60274-1.774 0.94905-4.7596-1.3438-5.4531-2.7254-0.26725-5.0357 1.7674-7.1152 3.2559-2.6296 2.0213-4.7285 4.6112-7.1621 6.8438 0.5993-6.0607 3.2114-11.598 4.6914-17.482 1.1193-4.5398 2.6821-9.1754 2.291-13.902-0.2332-1.7737-2.4607-1.5246-3.418-0.52929-6.9861 5.8864-10.448 14.603-15.109 22.219-0.65131-12.222 4.6901-23.923 3.873-36.172-0.10355-1.0483-1.0198-1.9414-2.0938-1.8887zm-25.084 56.395c0.0681 9e-5 0.1426 7e-3 0.2207 0.0234 0.0779-4e-3 0.15443-6e-3 0.23242-6e-3v2e-3c4.4905 0.51404 8.4763 3.0494 12.135 5.5527 3.1398 2.4626 6.3757 5.0943 8.3926 8.5918 0.3377 0.88388 0.24435 2.3896-0.60157 2.9316-1.2021 0.13519-1.353-1.6574-2.0957-2.2676-3.0447-4.2662-6.9308-7.9925-11.332-10.842-2.0803-1.367-4.5176-2.3615-7.0391-2.0293-0.84798-0.25318-0.9344-1.9583 0.0879-1.957zm-247.81 33.141c-0.0104 8e-4 -0.0209 4e-3 -0.0312 6e-3 -2.0468 0.76743-0.14382 2.9673 0.63281 4.0273 4.0533 5.3178 8.699 10.151 13.426 14.867 2.1445 0.51168 4.1166-1.4807 6.293-1.7129 4.124-1.2068 8.4787-0.87041 12.645-1.2188 1.9548-1.7264-1.8576-2.4092-3.0938-2.9648-10.069-3.6587-19.8-8.2095-29.402-12.953-0.15546 0.0794-0.31277-0.0627-0.46875-0.0508zm-62.973 9.5644-0.36914 0.0547-0.0859 0.0137c-1.7013 1.6492-1.0937 4.5172-1.5488 6.6875-0.82157 10.909-0.1347 22.377 4.6055 32.361 1.5656 1.0388 2.7998-1.5264 4.1426-2.2012 3.2141-3.1532 8.1936-1.9372 11.938-0.58985 1.1389 0.61515 3.0488 1.1834 3.3145 2.5781-2.5476 3.4677-6.3046 5.8909-9.1953 9.0801-8.4582 8.285-16.265 17.309-22.578 27.328-1.0662 1.344-2.4805 3.8506-4.4434 3.3535-1.5496-4.2192-0.29074-8.9053 0.73047-13.164 1.3235-5.4244 4.1421-10.294 6.1719-15.434-0.39316-2.2653-3.3061-2.8152-4.752-4.3203-2.8534-1.7983-5.0813-4.7366-8.252-5.9336-2.1602 0.32684-1.4896 3.3377-1.9277 4.8828-0.75933 9.4118-0.43838 18.796-1.4453 28.199-1.4451 13.82-2.6108 28.455 2.875 41.596 8.259 16.894 18.21 32.871 27.316 49.305 1.8475 2.723 2.9501 6.1806 5.5332 8.2598 17.736-1.4345 35.319-4.8194 52.811-7.6719 7.3447 2.7154 13.482 7.9647 20.451 11.484 5.6076 1.45 11.497 0.39089 17.195 0.0937 7.7241-0.78943 15.576-3.6404 20.814-9.6035 7.7694-7.2006 13.953-15.828 19.916-24.521 7.9679-11.3 19.01-19.788 28.879-29.293 2.2011-1.7437 3.0031-4.5395 2.5352-7.2461-0.70153-10.282-3.677-20.24-5.6367-30.322-2.6525-11.081-4.3886-22.506-8.7676-33.084-4.715-9.9377-13.867-16.664-21.955-23.711-3.8462-2.9083-7.0118-6.513-10.979-9.209-2.9616-1.3955-6.5513-1.1759-9.6406-0.72071-0.9992 2.0629 2.3206 2.2393 3.541 3.1953 1.4106 0.60103 3.8102 2.52 2.0859 4.0078-6.3279 2.1846-13.28 1.9673-19.879 3.0898-8.9293 0.91442-17.911 2.9004-26.803 2.7266-2.4896-0.36713-4.9445-1.4034-7.4785-0.53321-9.4047 2.1727-19.14 2.8835-28.564 1.168-12.233-2.0281-24.305-7.0373-33.297-15.854-2.3963-2.0015-4.4115-4.7183-7.2578-6.0527zm178.14 36.705c-4.3154 0.34518-7.8116 3.7222-10.242 7.0586-2.379 4.5455 0.12831 9.6811 1.1621 14.24 3.1055 9.7426 5.4539 19.682 7.9727 29.588 0.24802 2.1351 2.5268 3.7407 4.5117 2.5098 5.2858-2.6794 10.629-6.4478 12.516-12.365 4.0915-9.2651 2.8893-19.975-0.57812-29.229-2.4912-6.3509-8.0949-11.997-15.342-11.803zm-62.277 5.4922-0.34765 0.13672-0.31445 0.12695c-6.4256 2.5352-12.539 6.0981-17.33 11.135 4.6215-5.3632 10.73-10.301 17.992-11.398zm13.854 2.8965c6.4005 0.37122 13.511 2.0007 17.854 7.0723 1.4481 1.7356 1.5844 4.7266 0.17968 6.4707-7.2964-0.67207-14.738-2.2231-22.049-0.97461-8.3087 2.2329-16.363 6.6121-21.277 13.885-2.1328 2.5434-3.792 5.6504-6.4492 7.6816-1.308 0.69533-3.8145 0.45026-3.4453-1.5527 0.28014-7.788 3.695-15.398 9.3984-20.781 6.5648-6.9838 15.82-12.326 25.789-11.801zm-332.21 13.74c-2.0066 0.4495-1.3455 3.035-1.0977 4.4766 1.7695 8.0126 5.0632 15.574 7.4356 23.408-3.1447-2.0671-5.2862-5.336-7.8652-8.0273-5.5631-6.062-11.166-12.146-17.406-17.52-1.1684-0.97081-3.6375-1.6574-4.2363 0.28906-0.50385 2.8397 1.515 5.34 2.5996 7.8086 4.2251 8.0234 8.999 15.758 12.955 23.922-7.3985-7.0116-14.039-14.962-22.395-20.918-1.1626-0.78202-3.4281-2.2506-4.2695-0.31445-0.48139 3.0239 1.2734 5.8646 2.3984 8.5625 4.31 8.8581 10.584 16.563 14.789 25.475 0.63202 1.2067-1.0906-0.19328-1.5742-0.35157-6.196-3.5458-12.376-7.1985-18.896-10.111-1.6819-0.33011-1.563 1.8082-0.9668 2.7695 2.9505 8.3282 9.3307 14.688 15.307 20.928 6.9521 7.0585 12.853 15.096 20.1 21.865 3.9035 3.7265 8.6969 6.3997 13.846 7.9726 5.5416 2.402 9.9727 6.7359 14.254 10.885 4.7253 4.5922 8.6789 9.9519 13.145 14.805 1.1905 1.1308 3.1387 0.42299 3.457-1.1426 1.7623-6.3755 2.0428-13.129 3.4609-19.523 0.87001-4.6985 2.3803-9.3117 4.4238-13.633 0.0617-1.7542-2.0963-2.573-3.0176-3.8945-3.3904-3.5442-7.7985-6.9045-8.5566-12.09-1.3536-6.3878-0.54535-13.027-0.89062-19.568 0.0645-4.6088-1.7324-8.9713-2.2402-13.521-1.3845-7.9951-1.8419-16.126-3.2539-24.111-0.27969-1.581-2.2093-1.0551-2.7441 0.0645-4.5128 5.5758-5.4598 13.131-9.5195 18.859-0.64886-0.32371-1.08-1.7782-1.5801-2.5293-4.3214-7.6259-9.2579-14.898-14.357-22.021-0.93224-0.99937-1.7582-2.7573-3.3027-2.8125zm229.51 30.336c0.72018-0.0127 1.4435 8e-3 2.166 0.0664 0.24964-1.2e-4 0.49841 0 0.74805 0 4.8443-0.32752 9.6685 0.65341 14.072 2.7266 4.0016 1.8819 8.4834 3.9439 10.951 7.8535-1.865 0.24708-2.9627 2.4316-5.0117 1.6777-5.7704-0.54705-11.432-2.0484-17.17-2.7871-8.5169 2.6132-17.285 5.8812-23.432 12.645-2.853 2.89-5.2934 6.1436-7.8672 9.2754-2.3435-1.2154-3.8985-3.6499-3.5488-6.3379 0.0205-9.1757 7.1226-16.646 14.65-20.852 4.4469-2.4151 9.4002-4.1789 14.441-4.2676zm-214.82 5.8535c0.35227 1.3547-0.64803 2.8507-0.96094 4.1719-3.2894 8.0626-4.3903 16.838-7.1543 25.018-0.36154 1.332-1.5991-0.19933-1.6191-0.91992-1.2095-5.186-0.22579-10.451 1.084-15.521 1.3291-4.1368 2.7726-8.6866 6.2227-11.609 0.72749-0.50416 1.5307-1.0224 2.4277-1.1387zm265.24 2.9668c1.1986 2.105 0.88244 5.1097 2.8047 6.9492 0.67526 0.90854 2.0702 1.3874 2.6973 2.0078-2.67 2.4685-6.4225-0.54245-7.1172-3.4316-0.61899-1.9063-0.76389-4.7902 1.6152-5.5254zm33.752 9.0508h0.0527c3.777 2.0987 7.1786 5.3532 9.6934 8.9785 3.5804 5.714 3.1685 12.723 2.4902 19.068-0.54564 4.5427-2.5848 9.1905-6.8164 11.408-7.3334 4.5828-16.376 6.2536-24.857 4.9219-6.7295-1.8945-12.408-7.334-15.645-13.582-1.6355-3.8734-2.9862-8.0427-3.1367-12.254 0.78524-1.5469 3.1791-0.88605 4.5918-1.4355 8.5763-1.7697 17.244-4.4762 24.09-10.162 3.2526-2.1763 5.869-5.4852 9.5371-6.9434zm-143.63 15.805c-6.7524 0.39057-13.829 3.9019-17.105 10.01-2.8228 6.8253 0.0679 14.455 3.7871 20.338 5.2276 8.4085 14.363 13.97 24.07 15.471 5.1656 0.32154 10.527 0.10352 15.207-2.3574 1.7946-1.0625 4.9418-1.7388 5.1328-4.207-2.498-5.606-6.0542-10.708-8.5566-16.334-2.9552-5.962-5.5873-12.053-7.7578-18.336-1.9658-2.8702-5.9973-2.8618-9.0293-3.8223-1.8935-0.3742-3.809-0.77443-5.748-0.76171z" fill="#ffb380" stroke-linecap="square" stroke-width="5.125" style="paint-order:stroke markers fill"/><path transform="matrix(.26458 0 0 .26458 -225.69 -17.198)" d="m454.94 494.12c-3.3307 5.2647-7.5288 10.063-12.418 13.947-2.3548 1.6519-5.2569 2.0729-8.0506 2.2434-2.4559 0.33747-3.1804 3.1332-2.6967 5.223 0.51862 5.1114 2.9083 9.8225 6.2522 13.665 5.4728 7.1066 10.716 14.462 15.647 21.867 1.9131 1.078 1.743-1.8694 1.6611-3.0485 0.21305-16.549 0.0549-33.106 1.0644-49.621-0.24324-1.4377 0.90029-3.6883-0.75466-4.4594-0.2349 0.0611-0.4698 0.12226-0.70471 0.18339z" fill="#c87137" stroke-linecap="square" stroke-width="5.125" style="paint-order:stroke markers fill"/><path transform="matrix(.26458 0 0 .26458 -225.69 -17.198)" d="m623.93 327.25c-0.073-2e-3 -0.14577 2e-3 -0.2207 0.0137-4.3826 2.6282-6.5188 7.9793-9.4473 12.053-3.4104 5.8074 1.9366 11.931 3.4531 17.473 12.47 27.966 22.805 57.337 40.568 82.547 6.5829 9.5332 16.08 17.196 27.279 20.418 3.1852-2.7661 3.4797-7.8602 4.9785-11.686 0.0319-2.7406 3.102-6.4936 1.1953-8.7461-5.4785 0.43013-9.9911-2.9135-13.443-6.8379-16.159-15.346-24.953-36.264-33.943-56.162-7.3308-15.717-11.501-32.759-19.178-48.311-0.27674-0.4281-0.73128-0.74908-1.2422-0.76172zm-19.461 35.002-1.252 0.14258c-12.946 24.715-26.034 49.461-41.779 72.572-10.581 22.056-17.48 45.839-30.564 66.732-12.23 20.591-28.509 39.856-50.008 51.104 0.26384 15.391 3.1746 31.549 3.2832 47.373 0.58892 35.37 3.4478 71.95-7.3516 106.1-3.5196 8.8138-12.868 16.379-22.445 16.561-7.7006-3.7687-14.52-10.245-19.328-17.254-2.1015-15.079 4.0674-30.161 4.9414-45.246 3.7189-30.721 6.759-62.119 2.8066-92.924-12.912-2.7384-27.527-0.24917-41.113-1.5469-24.257-2.459-45.335-16.279-64.701-30.084-17.678-9.1538-37.523-13.206-55.518-21.783-20.943-8.3105-41.654-18.029-62-27.045-2.6839 20.265 2.6238 42.591-6.3555 62.207-7.3494 21.174-15.142 42.552-27.889 61.186 2.5606 5.1664 10.974 5.1536 15.605 8.3477 43.254 19.462 91.198 23.238 137.16 32.688 4.417-0.4274 13.478 5.6599 14.385-1.8262 5.2873-19.379 7.4301-40.917 9.957-59.82 2.2227 42.598-12.269 83.335-20.896 124.53-3.5136 13.319-4.7322 28.533-16.113 37.973-8.7722 7.9247-2.4147 20.477-3.8086 30.523 0.50009 5.9948 1.0876 15.015-7.4512 14.924-13.843 2.4059-16.827 18.761-25.604 27.584-17.259 21.979-38.547 40.36-60.684 57.25 2.917 9.9824 10.854 19.134 16.594 28.275 26.855 34.32 64.268 58.671 101.95 79.65 41.595 22.581 88.828 33.446 135.75 37.051 20.352 1.1109 40.67-1.0422 60.895-3.0567 3.2815-10.585 1.5397-23.345 2.6543-34.789 2.4068-98.089 5.9946-196.19 5.7871-294.31-0.32683-30.307-2.3398-60.591-2.2051-90.898 1.7672 6.7051 1.6276 14.054 3.9668 20.451 17.382-10.437 31.461-26.82 46.414-40.826 31.909-31.168 55.454-69.561 78.395-107.47 3.1608-6.5486-8.2201-5.2163-11.504-7.5273-21.948-9.9383-38.634-30.577-44.787-54.023-6.4716-17.322-10.991-35.589-17.188-52.791zm-75.182 57.172c-3.0429 0.34387-4.961 3.1498-7.1504 4.9902-8.8917 8.9238-17.859 17.772-27.281 26.139-7.7524 6.9106-15.401 14.116-21.107 22.871-4.4782 6.5574-9.0676 13.357-10.654 21.283-2.7322 13.142-3.6158 26.581-4.6719 39.938-0.32016 6.2922-1.0814 12.587-0.92774 18.891 0.0705 2.1159 2.6514 2.4474 4.2402 1.8574 6.6075-1.9831 12.998-4.6883 19.234-7.627 10.821-5.1483 19.112-14.129 26.877-23.008 13.895-16.564 24.239-35.72 33.92-54.949 4.2053-8.8425 8.7746-17.586 11.787-26.93 0.94439-3.3164 1.4917-6.9348 0.71875-10.326-0.89713-1.6943-3.0502-0.52984-4.5098-0.75781-3.3852-0.10296-7.0971 0.63756-10.305-0.8125-3.1966-2.1612-4.1575-6.2639-6.5879-9.1113-0.90042-1.1-2.0046-2.5113-3.582-2.4473zm-345.78 45.844c-3.815 2.5311-4.6235 7.9817-6.25 12.023-3.1012 14.057-4.3625 28.478-8.8262 42.217-6.314 22.891-11.841 46.193-22.494 67.551-0.99494 1.8433-2.1728 4.6871 0.84766 5.3262 6.5277 3.2593 12.742 7.7134 19.693 9.8613 4.0905-1.9534 4.1873-7.7203 5.9824-11.41 10.663-34.223 20.196-68.873 27.115-104.06 0.92809-4.8326 2.236-11.48-3.1543-14.264-4.109-2.5898-8.1738-6.0218-12.914-7.2461zm328.03 6.2441-0.084 0.16992c-4.1005 7.4502-9.304 14.228-13.484 21.637-5.5606 9.6097-11.136 19.279-15.402 29.547-0.30102 0.48409-0.31692 1.6596-0.51758 1.8145-0.26507-4.242 1.508-8.3001 2.7168-12.293 4.4876-13.308 12.432-25.229 21.553-35.855 1.6217-1.7858 3.2584-3.5955 5.2188-5.0195zm-119.21 24.484c-7.6773 1.083-15.25 2.6366-22.969 3.502-9.2749 1.2666-18.67 1.9498-27.871 3.7773-1.8447 0.29179-3.7964 1.5169-3.6875 3.6152-0.42657 2.7556 0.34835 6.015-1.9219 8.125-2.2371 2.7878-5.1667 5.0268-7.1621 7.9863-0.57022 2.6528 1.8132 4.772 3.6367 6.334 7.0062 4.7254 14.489 8.6753 21.711 13.059 15.582 8.8332 32.48 16.123 50.418 18.174 12.602 1.0183 25.319 1.5916 37.92 0.28125 3.4394-0.5291 6.9524-1.2815 10.074-2.8398 1.5269-1.3511-0.17233-3.269-0.92578-4.5606-7.2014-10.008-15.501-19.171-23.775-28.293-9.0772-9.7068-18.168-19.785-29.826-26.465-1.854-0.82765-3.4949-2.7063-5.6211-2.6953zm-20.592 24.953c12.561 0.10219 24.662 4.0891 36.32 8.6152 4.456 1.9994 9.0343 3.8265 13.082 6.623 1.4352 1.0911-0.0648 0.67748-0.90625 0.36719-10.696-3.5445-21.267-7.6461-32.139-10.725-5.891-1.8582-12.023-3.0184-17.859-4.8359 0.50005-0.0316 1.001-0.0427 1.502-0.0449zm-22.973 237.97 0.94532 0.80664c33.25 30.065 64.008 64.784 105.72 83.518 18.982 9.5751 39.477 15.449 59.611 21.918-31.198-0.53799-60.495-15.073-86.869-30.949-31.01-19.478-57.011-46.409-79.404-75.293zm-22.125 45.15 0.75196 1.2871 0.0801 0.14062c16.042 32.943 34.389 64.77 56.322 94.182 1.3351 2.4054 5.5 7.264 5.1856 8.7012-18.876-15.395-31.892-36.92-43.906-57.838-7.3925-14.941-16.722-29.581-18.434-46.473zm-130.82 97.982c-7.4041 4.5802-14.572 9.902-20.781 16.041-4.4715 4.8038 0.60781 10.9 2.6934 15.527 12.795 22.443 26.627 44.81 45.66 62.568 15.96 15.2 32.031 30.602 50.418 42.867 21.843 12.945 44.851 23.887 68.109 34.025 19.818 7.3608 40.7 11.372 61.311 15.844 22.278 5.1106 45.237 3.3104 67.881 3.3945 20.198-0.097 40.009-4.7232 59.811-8.1992 5.5271-0.029 8.4504-5.1727 9.4297-9.9727 1.8698-7.8542 3.0501-16.177 2.668-24.131-8.6366-0.6395-17.26 2.9004-25.877 3.0879-25.606 1.8357-51.508 1.4621-77.24 1.3222-23.836-4.6666-48.229-7.4806-70.887-16.65-15.197-6.0376-30.467-12.146-45.34-18.838-21.374-10.951-41.402-24.64-60.371-39.33-24.562-20.905-47.23-44.903-63.285-73.186-1.2732-1.4266-1.904-4.4063-4.1992-4.3711z" fill="#fff6d5" stroke-linecap="square" stroke-width="5.125" style="paint-order:stroke markers fill"/><path transform="matrix(.26458 0 0 .26458 -225.69 -17.198)" d="m309.11 230.46c-0.0622-2e-3 -0.1259-2e-3 -0.1914 2e-3 -2.6488 1.4766-2.2944 5.3966-2.5625 8.0781 0.3253 7.93 1.8497 16.575 7.3066 22.67 1.696 1.9855 4.7454 3.3365 6.1113 5.0801-4.142 1.5481-8.5985-3.0269-12.383 0.10351-9.9151 7.7042-18.586 16.921-27.051 26.16-6.7408 9.4032-11.538 20.08-16.211 30.623-6.798 16.334-11.428 33.868-10.719 51.689-0.13048 20.776 3.9298 41.665 13.039 60.412 2.5101 5.187 4.7483 10.632 7.6367 15.557 2.3281 1.1634 4.2637-2.2242 6.4434-2.9746 5.8175-3.3012 12.798-5.5101 19.443-3.6621 2.6347-0.28568 1.1441-3.2888-0.33789-4.1328-10.672-9.999-20.064-21.976-23.182-36.535-1.9606-9.323-2.459-18.978-0.70508-28.344 0.98209-3.9544 1.0193 1.3478 1.3535 2.5762 1.9985 15.818 4.1921 32.482 13.732 45.799 2.297 3.0246 3.83 6.9642 7.0469 9.1289 3.3217 0.36219 1.6682-4.034 1.5664-5.832-2.2312-13.841 0.16715-27.813 1.0723-41.609 0.65383-9.0079 2.5497-17.859 3.5742-26.756-2.3485-6.2484-6.5294-12.207-6.4395-19.078-0.043-2.0518 2.7136-2.7243 2.2305-0.23828 4.1371 11.101 11.734 20.829 20.754 28.422 2.3193 1.3115 4.5281 4.0411 7.3887 3.7305 2.4175-1.7793-0.92519-4.4952-1.6582-6.3867-4.7068-6.1836-5.6518-14.172-5.6562-21.613-0.32646-8.5664 1.4912-16.961 4.3379-25.018 0.41598-1.2839 0.30217-3.8482 1.1797-4.3066 8.8632 14.364 24.158 24.14 40.646 27.283 11.165 2.0676 22.771 1.9466 33.965 0.15039 2.111 0.14762 3.4036-2.5341 1.3574-3.7012-9.7092-7.1731-17.579-17.006-22.355-28.008-0.57348-1.5868-1.2974-3.8962-0.81836-5.2754 7.2695 4.2048 14.556 8.4714 22.402 11.574 12.991 5.4514 26.59 10.245 40.842 10.412 8.1381 0.18838 16.487 1.0607 24.504-0.64258 3.0848-1.6457-0.18354-5.0398-1.4199-6.8711-9.8655-12.883-21.971-23.811-32.201-36.357 8.3955 4.8685 15.129 12.135 22.23 18.656 6.9562 7.1611 14.644 13.98 19.84 22.584 1.6556 2.0774 0.75459 5.0336-1.8477 5.6289-3.9215 1.835-8.5082 1.6311-12.355 3.3379-0.30085 3.233 4.6171 3.9478 6.5391 6.0078 7.6421 5.0261 14.849 10.988 20.039 18.578 1.7228 1.7576 3.5997-0.71066 3.127-2.5664 0.59756-10.953-0.17887-21.912-0.74219-32.84-0.11874-1.1403 0.34934-2.1874 1.166-0.75 5.708 8.4741 5.212 19.349 4.9121 29.129-0.10132 4.2313-2.3051 8.1707-2.5566 12.301 1.7234 2.6413 3.9646-1.0752 5.6445-1.9102 4.2124-2.9614 9.8643-4.2911 14.557-1.8203 1.821 0.49996 5.8856 2.8436 6.1953-0.44726-4.3416-11.86-5.8086-24.783-10.58-36.641-5.9996-15.363-15.038-29.458-25.42-42.213-13.949-16.752-34.713-25.458-54.693-32.723-18.941-6.6287-39.473-11.593-59.504-7.1582-11.945 1.9524-23.098 7.4801-35.215 8.209-9.2543 0.0676-16.451-6.9479-21.947-13.625-1.106-1.2117-1.5021-3.791-3.4316-3.8476zm104.39 104.47c-1.5919 0.20335-4.1263-0.55073-4.8398 1.4258-0.27247 1.0216 0.59629 1.7782 1.3379 2.2988-1.3874 1.2417-3.4417 2.5093-3.4824 4.5566 0.55817 2.0739 3.0726 1.1187 4.5293 0.84179 11.503-2.6187 23.371-2.2765 35.096-3.4512 1.6637 6.1e-4 2.2846-2.4594 0.61133-3.0254-4.6288-1.8123-9.7156-1.8706-14.611-2.2852-6.2085-0.26672-12.427-0.37734-18.641-0.36132zm-73.135 26.9c-3.1919 0.0441-6.9142 1.3984-8.2246 4.5293-0.29415 2.2637 1.6185 4.0423 2.7148 5.8301 0.96264 1.5562 2.7858 0.47264 3.709-0.52539 2.3146-2.1636 5.3009-3.9295 6.7031-6.8652 0.42199-2.6455-3.0694-3.0185-4.9024-2.9688zm-14.029 13.369c-1.2033-0.0241-2.3936 0.0215-3.5195 0.3457-1.5307 2.9326-2.1835 6.3052-3.375 9.4082-1.1921 3.8351-2.683 7.6103-3.5449 11.531-0.41843 1.7451 2.0021 2.7096 2.8223 1.0859 2.5143-3.6555 4.4799-7.6791 7.2031-11.207 2.1265-3.0491 4.5232-5.908 6.6035-8.9863 0.64339-1.6869-1.3066-2.3131-2.5977-2.1074-1.1734 0.0476-2.3885-0.0462-3.5918-0.0703zm195.02 37.891v2e-3c-2.9201 0.52312-5.272 2.6366-7.9961 3.5703-2.185 1.0706-4.8481 1.2363-6.7266 2.8633-1.1268 1.5001-0.61063 3.5419-0.74219 5.291 0.14189 1.979-0.11018 4.0557 0.48438 5.9551 0.9757 1.1403 2.3438 0.16449 3.0352-0.76757 4.444-4.5321 9.158-8.8552 13.061-13.879 0.9632-0.94385 0.73312-2.9307-0.8164-3.0273-0.099-0.01-0.19951-0.012-0.29883-8e-3zm-192.35 77.654-0.50977 0.13281-0.43555 0.11524c-3.7709 3.1493-8.3108 5.0775-12.486 7.5176-1.5707 2.7245 2.8222 3.9784 4.2734 5.5742 3.7318 2.6338 7.3939 5.3921 11.279 7.793 3.2552 0.34699 1.636-3.9314 1.7383-5.7871-0.97915-2.9893 1.519-5.2444 2.0703-7.8828-1.8589-2.5282-3.3532-5.6418-5.9297-7.4629z" fill="#241f1c" stroke-linecap="square" stroke-width="5.125" style="paint-order:stroke markers fill"/><path transform="matrix(.26458 0 0 .26458 -225.69 -17.198)" d="m664.52 335.74c-0.31601 0.0113-0.68582 0.22189-0.99414 0.20508-5.9024 3.229-10.681 8.4973-11.83 15.297-1.524 6.6126-3.2903 13.317-4.0273 20.01 10.866 20.378 19.164 42.928 36.094 59.318 1.255 1.6404 4.7839 5.467 5.9004 1.7539 2.4746-11.513-1.5787-23.18-3.6973-34.443-5.2718-21.085-10.14-42.874-20.959-61.854-0.1252-0.22899-0.29672-0.29391-0.48633-0.28711zm-507.22 162.37c-0.11146-7e-3 -0.22589-4e-3 -0.34375 6e-3 -2.0096 1.3025-1.5604 4.2993-2.2598 6.3535-2.0051 11.738-3.0113 23.554-5.6719 35.158-2.0913 10.807-4.9467 21.561-5.6348 32.574 0.36278 2.2526 3.1731 1.2715 3.4297-0.50977 5.6495-12.795 8.8044-26.508 12.521-39.945 2.1168-8.364 4.6893-16.667 6.8418-24.988-0.77601-2.3284-3.4093-3.7292-4.9609-5.6582-1.2664-0.92873-2.25-2.8848-3.9219-2.9902z" fill="#917c6f" stroke-linecap="square" stroke-width="5.125" style="paint-order:stroke markers fill"/><path transform="matrix(.26458 0 0 .26458 -225.69 -17.198)" d="m435.67 445.44c-5.5992-0.0726-11.219 1.4638-15.77 4.7851-4.6462 3.3595-9.0898 7.8529-10.42 13.608-0.99156 3.497 1.6234 6.6684 4.4906 8.2993 2.9724 1.959 6.4649 3.1546 10.056 2.8623 7.5734 0.0754 15.81-1.2386 21.572-6.5593 4.0565-3.9699 4.3311-10.085 4.3936-15.413-0.0772-3.4341-3.5598-5.3676-6.3738-6.484-2.5405-0.90556-5.2693-1.1342-7.9491-1.0988z" fill="#ff6242" stroke-linecap="square" stroke-width="5.125" style="paint-order:stroke markers fill"/><path transform="matrix(.26458 0 0 .26458 -225.69 -17.198)" d="m168.59 922.34c-0.0566-1e-3 -0.11385 1e-3 -0.17187 6e-3 -6.9238 1.79-13.463 4.9858-20.512 6.4512-5.9862 1.6904-12.152 2.4496-18.215 3.3574-1.7789 2.1615-0.32312 5.8525-0.79492 8.5938 0.2718 10.885 1.0987 22.532 6.9395 32.033 3.7882 5.096 8.0741 10.037 13.1 13.904 3.2575-0.0967 5.659-3.1515 8.3633-4.7012 10.14-7.7164 20.326-15.612 29.617-24.25 0.27255-2.736-2.7236-5.0785-3.7285-7.6348-4.9187-8.4717-9.4894-17.151-12.658-26.398-0.40229-0.71-1.09-1.345-1.9395-1.3613zm-41.205 10.375c-0.76313 0.0136-1.6511 0.28082-2.2226 0.33007-7.9418 1.0734-11.281 10.083-10.99 17.158-0.29969 9.672 1.8896 19.441 7.1777 27.627 4.508 7.793 13.717 13.873 22.861 11.945 2.7808-1.6868-0.45498-4.6036-1.832-6.0527-5.872-5.5073-11.576-11.841-13.334-19.857-2.4344-9.8081-2.5154-20.19-0.18164-29.965-0.0769-0.95927-0.71539-1.1992-1.4785-1.1855zm377.46 162.12c-1.0196-0.036-2.1167 0.1096-3.0312 0.01-8.491 1.0135-16.741 2.2847-25.318 2.4727-6.8736 0.4672-13.933 0.2495-20.75 0.9648-1.9258 2.2399-0.33078 6.1991-0.81054 9.0996 0.21241 8.9521-0.13336 18.024 0.42578 26.902 2.032 1.9993 5.8001 1.5591 8.5137 2.5644 9.53 2.1289 19.395 0.8327 29.059 0.666 10.978-0.8081 21.893-2.9038 32.469-5.9004 3.0741-1.3644-0.19045-4.5645-1.1914-6.2539-6.3746-9.3693-13.564-18.361-16.797-29.438-0.60666-0.8313-1.5488-1.0495-2.5684-1.0859zm22.949 38.842c-0.0659 8e-4 -0.13121 0.01-0.19726 0.014-17.465 7.8642-37.118 11.07-56.154 8.791-5.0789-0.7468-9.6994-3.6333-14.865-3.8262-3.1066 1.1808-1.0384 5.4564 0.64258 7.084 5.8837 4.2408 13.484 5.132 20.525 5.8027 14.459 0.531 29.221-0.3583 42.867-5.5644 3.7924-1.7426 9.0118-2.8531 10.857-7.0195 0.28503-1.979-1.6338-5.3066-3.6758-5.2813z" fill="#241f1c" stroke-linecap="square" stroke-width="5.125" style="paint-order:stroke markers fill"/><path transform="matrix(.26458 0 0 .26458 -225.69 -17.198)" d="m610.12 346.9c-0.22193-5e-3 -0.46405 0.0527-0.73438 0.19141-2.1448 2.9197-3.3881 6.6562-4.6113 10.012 6.1594 16.558 12.088 33.343 17.92 50.102 5.5486 15.186 10.218 31.745 22.424 43.145 8.0739 7.9069 16.652 16.658 28.02 19.355 3.6209 0.8846 8.53 1.1521 10.438-2.7988 1.3422-1.7956 3.2027-5.8139-0.1914-6.5234-5.6428-0.75177-11.077-2.7639-15.617-6.2598-13.848-9.4826-22.35-24.44-29.668-39.203-11.12-21.424-18.444-44.533-26.713-67.215-0.38661-0.47101-0.77738-0.7931-1.2656-0.80469zm-404.35 131.66c-2.611 0.83051-1.6603 4.5444-2.3379 6.6406-3.1957 30.708-11.294 60.613-21.139 89.779-3.5117 9.7541-7.159 19.643-13.191 28.158-0.16627 2.896 3.9221 3.206 5.7383 4.6777 2.3376 1.1121 5.6624 3.8053 7.7617 0.81446 5.7676-7.2162 8.43-16.329 12.109-24.682 6.7853-17.794 13.742-35.658 17.953-54.27 2.7833-14.429 3.0113-29.211 3.4258-43.857 0.41015-3.6214-4.304-4.0789-6.541-5.918-1.182-0.58385-2.4078-1.4074-3.7793-1.3438zm270.97 75.271c-1.3861-3e-3 -3.1114 0.57635-4.3008 0.81445l-3.793 0.76172c-3.0122 0.9333-6.6472 0.77198-9.3086 2.416-1.1748 2.4646 0.53986 5.5584 0.60352 8.2207 3.2121 25.149 2.9594 50.798 3.0918 76.248-0.016 21.376-1.7107 42.885-5.3242 63.932-0.85987 3.6129-1.3063 7.5214-2.6562 11.008 2.5774-21.113 4.067-42.346 4.2871-63.619 0.46788-29.891 0.70609-59.823-0.78711-89.688-0.18926-1.6654-0.39379-4.6484-2.6934-4.5664-4.0854 1.6224-8.429 3.3434-11.893 5.9629 1.6604 7.7995 3.7604 15.66 3.8027 23.738 0.77805 32.875-0.64319 66-7.7559 98.258-0.91063 5.4327-2.7723 10.825-2.9609 16.322 3.3244 6.6143 9.3747 11.404 14.227 16.877 0.54691 0.9034 1.1238 1.3247 1.6602 1.4043 0.43978 0.98142 2.0221 1.6263 3.0898 0.6836 7.6772-4.9691 16.174-11.139 18.094-20.688 2.4272-14.086 6.3369-28.037 6.5742-42.467 1.3978-34.306 0.73077-68.698-1.6934-102.94 0.1693-2.0898-0.87761-2.6747-2.2637-2.6777zm-255.13 332.89c-3.6688 0.83705-6.6154 3.5601-9.959 5.1953-3.5118 2.2602-7.4625 3.9901-10.686 6.6133-0.34736 2.3434 1.9464 4.1531 2.8535 6.1719 8.1775 12.562 16.294 25.203 25.348 37.156 12.046 14.329 25.361 27.79 40.801 38.477 17.164 12.053 34.589 23.87 53.146 33.693 11.438 5.6937 23.545 9.8815 35.201 15.096 17.563 7.547 35.944 13.219 54.828 16.293 11.764 1.8509 23.351 5.1509 35.254 6.1621 16.63 0.03 33.281 0.052 49.893-0.8086 13.702-1.1114 27.411-1.645 41.109-2.7871 1.9298-0.029 4.4548-0.6627 4.3984-3.0606 0.67305-5.7167 1.0562-11.582 0.33203-17.301-0.75212-2.7519-4.0584-1.531-6.0176-1.2871-11.873 1.8429-23.673 4.543-35.693 5.0761-14.46 0.9838-29.035 1.2708-43.4-1.3457-17.929-2.6273-35.885-5.2763-53.316-10.303-11.562-3.2339-23.464-5.724-34.316-10.973-20.528-9.2832-40.873-19.336-59.369-32.344-16.035-11.133-31.968-22.81-46.137-36.158-12.602-12.986-23.942-27.129-34.812-41.592-2.6866-3.4559-4.9716-7.2986-7.2891-11.025-0.54172-0.61144-1.3428-0.99733-2.168-0.94922z" fill="#e9c6af" stroke-linecap="square" stroke-width="5.125" style="paint-order:stroke markers fill"/></g></g></g></svg>